<svg width="20" height="20" viewBox="0 0 20 20" fill="none" xmlns="http://www.w3.org/2000/svg">
<path d="M14.4453 19.5293C11.6621 19.5293 8.25391 17.791 5.11914 14.6562C1.96484 11.502 0.246094 8.10352 0.246094 5.31055C0.246094 3.62109 0.705078 2.49805 1.81836 1.50195C1.89648 1.43359 1.97461 1.36523 2.0625 1.28711C2.7168 0.701172 3.36133 0.417969 3.97656 0.427734C4.67969 0.4375 5.33398 0.837891 5.93945 1.70703L7.91211 4.54883C8.51758 5.41797 8.58594 6.45312 7.76562 7.27344L7.02344 8.02539C6.79883 8.25 6.78906 8.43555 6.91602 8.66016C7.30664 9.27539 8.03906 10.1152 8.80078 10.8672C9.52344 11.5898 10.5879 12.5176 11.1152 12.8496C11.3301 12.9863 11.5254 12.9766 11.75 12.752L12.502 12C13.3223 11.1895 14.3477 11.2578 15.2266 11.8633L18.0684 13.8359C18.9375 14.4414 19.3477 15.0957 19.3477 15.7988C19.3477 16.4141 19.0742 17.0586 18.4883 17.7129C18.4199 17.791 18.3418 17.8789 18.2637 17.957C17.2773 19.0703 16.1543 19.5293 14.4453 19.5293ZM14.4551 18.0254C15.5391 18.0059 16.4668 17.6348 17.1309 16.873C17.1895 16.8047 17.2285 16.7559 17.2871 16.6875C17.541 16.3945 17.6777 16.082 17.6777 15.7988C17.6777 15.5059 17.5703 15.2617 17.2773 15.0664L14.4355 13.1719C14.123 12.9766 13.791 12.957 13.4883 13.2598L12.6289 14.1191C11.9551 14.793 11.1348 14.7441 10.4805 14.2559C9.71875 13.6895 8.53711 12.6348 7.79492 11.8828C7.04297 11.1406 6.07617 10.0469 5.51953 9.29492C5.03125 8.64062 4.98242 7.82031 5.65625 7.14648L6.51562 6.28711C6.81836 5.98438 6.79883 5.64258 6.59375 5.33984L4.69922 2.49805C4.51367 2.20508 4.25977 2.09766 3.97656 2.09766C3.69336 2.09766 3.38086 2.23438 3.08789 2.48828C3.01953 2.53711 2.9707 2.58594 2.90234 2.64453C2.14062 3.30859 1.75977 4.23633 1.74023 5.31055C1.69141 7.80078 3.69336 11.1016 6.24219 13.6406C8.77148 16.1602 11.9648 18.0742 14.4551 18.0254Z" fill="#FF8A36"/>
</svg>
