<svg width="36" height="36" viewBox="0 0 36 36" fill="none" xmlns="http://www.w3.org/2000/svg">
<path d="M19.4399 9.7425H16.6274V16.605H9.76489V19.4175H16.6274V26.28H19.4399V19.4175H26.3024V16.605H19.4399V9.7425Z" fill="black"/>
<path d="M18 1.125C13.3779 0.9854 8.88875 2.68271 5.51522 5.8454C2.14168 9.00809 0.158579 13.3785 0 18C0.158579 22.6215 2.14168 26.9919 5.51522 30.1546C8.88875 33.3173 13.3779 35.0146 18 34.875C22.6221 35.0146 27.1112 33.3173 30.4848 30.1546C33.8583 26.9919 35.8414 22.6215 36 18C35.8414 13.3785 33.8583 9.00809 30.4848 5.8454C27.1112 2.68271 22.6221 0.9854 18 1.125ZM18 32.0625C14.1236 32.2026 10.3496 30.8017 7.50339 28.1663C4.65721 25.531 2.9706 21.8757 2.8125 18C2.9706 14.1243 4.65721 10.469 7.50339 7.83367C10.3496 5.19831 14.1236 3.79745 18 3.9375C21.8764 3.79745 25.6504 5.19831 28.4966 7.83367C31.3428 10.469 33.0294 14.1243 33.1875 18C33.0294 21.8757 31.3428 25.531 28.4966 28.1663C25.6504 30.8017 21.8764 32.2026 18 32.0625Z" fill="black"/>
</svg>
