<svg width="16" height="16" viewBox="0 0 16 16" fill="none" xmlns="http://www.w3.org/2000/svg">
<path d="M12.6666 2.66668H11.3333V2.00001C11.3333 1.8232 11.263 1.65363 11.138 1.52861C11.013 1.40358 10.8434 1.33334 10.6666 1.33334C10.4898 1.33334 10.3202 1.40358 10.1952 1.52861C10.0702 1.65363 9.99992 1.8232 9.99992 2.00001V2.66668H5.99992V2.00001C5.99992 1.8232 5.92968 1.65363 5.80466 1.52861C5.67963 1.40358 5.51006 1.33334 5.33325 1.33334C5.15644 1.33334 4.98687 1.40358 4.86185 1.52861C4.73682 1.65363 4.66659 1.8232 4.66659 2.00001V2.66668H3.33325C2.80282 2.66668 2.29411 2.87739 1.91904 3.25246C1.54397 3.62754 1.33325 4.13624 1.33325 4.66668V12.6667C1.33325 13.1971 1.54397 13.7058 1.91904 14.0809C2.29411 14.456 2.80282 14.6667 3.33325 14.6667H12.6666C13.197 14.6667 13.7057 14.456 14.0808 14.0809C14.4559 13.7058 14.6666 13.1971 14.6666 12.6667V4.66668C14.6666 4.13624 14.4559 3.62754 14.0808 3.25246C13.7057 2.87739 13.197 2.66668 12.6666 2.66668ZM13.3333 12.6667C13.3333 12.8435 13.263 13.0131 13.138 13.1381C13.013 13.2631 12.8434 13.3333 12.6666 13.3333H3.33325C3.15644 13.3333 2.98687 13.2631 2.86185 13.1381C2.73682 13.0131 2.66659 12.8435 2.66659 12.6667V8.00001H13.3333V12.6667ZM13.3333 6.66668H2.66659V4.66668C2.66659 4.48987 2.73682 4.3203 2.86185 4.19527C2.98687 4.07025 3.15644 4.00001 3.33325 4.00001H4.66659V4.66668C4.66659 4.84349 4.73682 5.01306 4.86185 5.13808C4.98687 5.26311 5.15644 5.33334 5.33325 5.33334C5.51006 5.33334 5.67963 5.26311 5.80466 5.13808C5.92968 5.01306 5.99992 4.84349 5.99992 4.66668V4.00001H9.99992V4.66668C9.99992 4.84349 10.0702 5.01306 10.1952 5.13808C10.3202 5.26311 10.4898 5.33334 10.6666 5.33334C10.8434 5.33334 11.013 5.26311 11.138 5.13808C11.263 5.01306 11.3333 4.84349 11.3333 4.66668V4.00001H12.6666C12.8434 4.00001 13.013 4.07025 13.138 4.19527C13.263 4.3203 13.3333 4.48987 13.3333 4.66668V6.66668Z" fill="#5A5A5A"/>
</svg>
