<svg width="24" height="24" viewBox="0 0 24 24" fill="none" xmlns="http://www.w3.org/2000/svg">
<path d="M7.35352 4.9082C7.35352 2.88672 8.98438 1.22656 11.0156 1.22656C13.0566 1.22656 14.6875 2.88672 14.6875 4.9082C14.6875 6.62695 13.5156 8.07227 11.9238 8.46289V14.6445C11.9238 17.5352 11.416 19.0977 11.0156 19.0977C10.625 19.0977 10.1074 17.5254 10.1074 14.6445V8.46289C8.51562 8.0625 7.35352 6.62695 7.35352 4.9082ZM9.9707 5.11328C10.6641 5.11328 11.2305 4.52734 11.2305 3.84375C11.2305 3.16992 10.6641 2.59375 9.9707 2.59375C9.30664 2.59375 8.7207 3.16992 8.7207 3.84375C8.7207 4.52734 9.30664 5.11328 9.9707 5.11328ZM11.0254 22.6719C5.13672 22.6719 1.74805 20.6406 1.74805 18.4922C1.74805 15.9141 5.83984 14.3418 8.52539 14.3125V15.7383C6.64062 15.7676 3.73047 16.793 3.73047 18.2578C3.73047 19.957 6.80664 21.1289 11.0254 21.1289C15.2246 21.1289 18.3203 19.9375 18.3203 18.2578C18.3203 16.793 15.4004 15.7676 13.5156 15.7383V14.3125C16.2012 14.3418 20.293 15.9141 20.293 18.4922C20.293 20.6406 16.9141 22.6719 11.0254 22.6719Z" fill="#FF8A36"/>
</svg>
