<svg width="36" height="36" viewBox="0 0 36 36" fill="none" xmlns="http://www.w3.org/2000/svg">
<path d="M35.0306 14.3568L20.0306 0.769204C20.0233 0.763062 20.0164 0.756446 20.01 0.749402C19.4577 0.267201 18.7381 0 17.9916 0C17.2451 0 16.5254 0.267201 15.9731 0.749402L15.9525 0.769204L0.969375 14.3568C0.663746 14.6266 0.419782 14.9544 0.252922 15.3194C0.086061 15.6844 -6.30803e-05 16.0787 3.46647e-08 16.4773V33.1198C3.46647e-08 33.8836 0.31607 34.6162 0.87868 35.1564C1.44129 35.6965 2.20435 36 3 36H12C12.7956 36 13.5587 35.6965 14.1213 35.1564C14.6839 34.6162 15 33.8836 15 33.1198V24.479H21V33.1198C21 33.8836 21.3161 34.6162 21.8787 35.1564C22.4413 35.6965 23.2044 36 24 36H33C33.7956 36 34.5587 35.6965 35.1213 35.1564C35.6839 34.6162 36 33.8836 36 33.1198V16.4773C36.0001 16.0787 35.9139 15.6844 35.7471 15.3194C35.5802 14.9544 35.3363 14.6266 35.0306 14.3568ZM33 33.1198H24V24.479C24 23.7151 23.6839 22.9825 23.1213 22.4424C22.5587 21.9022 21.7956 21.5988 21 21.5988H15C14.2044 21.5988 13.4413 21.9022 12.8787 22.4424C12.3161 22.9825 12 23.7151 12 24.479V33.1198H3V16.4773L3.02063 16.4593L18 2.87718L32.9812 16.4557L33.0019 16.4737L33 33.1198Z" fill="black"/>
</svg>
