<svg width="43" height="38" viewBox="0 0 43 38" fill="none" xmlns="http://www.w3.org/2000/svg">
<path d="M9.51758 37.2891C7.00391 37.2891 5.54492 35.8652 5.54492 33.4043V16.6348L3.25977 18.5684C2.89062 18.8672 2.48633 19.1309 1.99414 19.1309C1.04492 19.1309 0.482422 18.4453 0.482422 17.7246C0.482422 17.3203 0.658203 16.8984 1.04492 16.582L19.3613 1.20117C20.6797 0.09375 22.2969 0.09375 23.5977 1.20117L32.8438 8.9707V5.40234C32.8438 4.62891 33.3535 4.13672 34.1094 4.13672H35.9902C36.7637 4.13672 37.2559 4.62891 37.2559 5.40234V12.6797L41.8965 16.582C42.2656 16.8984 42.4414 17.25 42.4414 17.7773C42.4414 18.6211 41.7734 19.1309 40.9473 19.1309C40.4551 19.1309 40.0508 18.8672 39.6992 18.5684L37.2559 16.5117V33.4043C37.2559 35.8652 35.7969 37.2891 33.3008 37.2891H9.51758ZM26.5332 22.6816V34.459H32.7031C33.8105 34.459 34.4258 33.8262 34.4258 32.6836V14.1387L22.1035 3.80273C21.7168 3.45117 21.2422 3.45117 20.8555 3.80273L8.375 14.2617V32.6836C8.375 33.8262 8.99023 34.459 10.1152 34.459H16.3906V22.6816C16.3906 21.873 16.918 21.3457 17.7441 21.3457H25.1973C26.0059 21.3457 26.5332 21.873 26.5332 22.6816Z" fill="#FF8A36"/>
</svg>
