<svg width="22" height="17" viewBox="0 0 22 17" fill="none" xmlns="http://www.w3.org/2000/svg">
<path d="M4.96875 17L2.92969 9.45312H0.492188V7.57812H2.41406L0.375 0.03125H2.50781L4.42969 7.57812H7.78125L9.75 0.03125H12.0938L14.0625 7.57812H17.4375L19.3359 0.03125H21.4922L19.4531 7.57812H21.375V9.45312H18.9375L16.875 17H14.6953L12.6328 9.45312H9.23438L7.17188 17H4.96875ZM4.89844 9.45312L6 13.7891H6.16406L7.28906 9.45312H4.89844ZM9.75 7.57812H12.1172L10.9922 3.54688H10.8516L9.75 7.57812ZM14.5547 9.45312L15.6797 13.7891H15.8438L16.9453 9.45312H14.5547Z" fill="#FF8A36"/>
</svg>
