<svg width="36" height="37" viewBox="0 0 36 37" fill="none" xmlns="http://www.w3.org/2000/svg">
<path d="M18.0762 36.2383C8.28516 36.2383 0.146484 28.0996 0.146484 18.3086C0.146484 8.5 8.26758 0.378906 18.0586 0.378906C27.8672 0.378906 36.0059 8.5 36.0059 18.3086C36.0059 28.0996 27.8848 36.2383 18.0762 36.2383ZM18.0762 24.2852C23.3672 24.2852 27.4453 26.1836 29.2207 28.293C31.5938 25.6562 33.0176 22.1582 33.0176 18.3086C33.0176 10.0117 26.3555 3.36719 18.0586 3.36719C9.76172 3.36719 3.15234 10.0117 3.15234 18.3086C3.15234 22.1582 4.57617 25.6387 6.93164 28.293C8.72461 26.1836 12.7852 24.2852 18.0762 24.2852ZM18.0762 21.2969C14.7012 21.2617 12.0645 18.4492 12.0469 14.6699C12.0293 11.1191 14.7012 8.18359 18.0762 8.18359C21.4512 8.18359 24.1055 11.1191 24.1055 14.6699C24.1055 18.4492 21.4688 21.332 18.0762 21.2969Z" fill="black"/>
</svg>
